<svg width="20" height="15" viewBox="0 0 20 15" fill="none" xmlns="http://www.w3.org/2000/svg">
<path fill-rule="evenodd" clip-rule="evenodd" d="M0 1.5C0 0.947715 0.447715 0.5 1 0.5H19C19.5523 0.5 20 0.947715 20 1.5C20 2.05228 19.5523 2.5 19 2.5H1C0.447715 2.5 0 2.05228 0 1.5ZM0 7.5C0 6.94772 0.447715 6.5 1 6.5H12.5C13.0523 6.5 13.5 6.94772 13.5 7.5C13.5 8.05228 13.0523 8.5 12.5 8.5H1C0.447715 8.5 0 8.05228 0 7.5ZM0 13.5C0 12.9477 0.447715 12.5 1 12.5H8.44772C9 12.5 9.44772 12.9477 9.44772 13.5C9.44772 14.0523 9 14.5 8.44772 14.5H1C0.447715 14.5 0 14.0523 0 13.5Z" fill="#0091BC"/>
</svg>
