<svg width="22" height="23" viewBox="0 0 22 23" fill="none" xmlns="http://www.w3.org/2000/svg">
<path fill-rule="evenodd" clip-rule="evenodd" d="M17.233 0.0151503L17.1707 0.00217521L17.173 0H16.4576C16.4508 0.00290029 16.444 0.00676733 16.4373 0.0106344C16.4237 0.0183685 16.4101 0.0261026 16.3965 0.0261026C15.491 0.117462 14.6692 0.445919 13.8814 0.857034C13.132 1.2464 12.4167 1.68579 11.8416 2.30138C11.5021 2.66681 11.2666 3.0714 11.4455 3.5891C11.579 3.97412 11.8779 4.21121 12.2356 4.39393C12.8287 4.69846 13.4761 4.83115 14.1327 4.92251C15.2691 5.07912 16.4033 5.09435 17.5171 4.76589C18.8777 4.36565 19.5455 3.41291 19.3554 2.11431C19.2558 1.42041 18.966 0.815705 18.3366 0.398064C18.0015 0.17516 17.6175 0.0952145 17.233 0.0151503ZM13.5078 3.14101L13.5033 3.05835L13.5056 3.05618C14.1576 2.56675 14.8571 2.15564 15.6404 1.88374C16.1045 1.72277 16.5799 1.62053 17.0825 1.67056C17.3405 1.69667 17.5035 1.8163 17.5828 2.05775C17.8024 2.71902 17.6756 2.97569 16.9874 3.19104C16.2494 3.42161 15.4887 3.40421 14.7303 3.33025C14.4437 3.30287 14.1594 3.25314 13.8749 3.20339L13.8749 3.20339C13.7526 3.18201 13.6303 3.16062 13.5078 3.14101ZM5.77396 0.0379081L5.77396 0.0379073C5.71241 0.0277852 5.65074 0.0176441 5.58936 0.00615448H4.8287C4.71665 0.0425097 4.60202 0.0743707 4.48745 0.106215L4.48745 0.106217C4.24556 0.173449 4.00394 0.24061 3.78733 0.349838C2.75275 0.882766 2.42449 2.39889 2.75275 3.28203C3.05158 4.09121 3.69904 4.53495 4.51176 4.76552C6.00591 5.19186 7.50005 5.07658 8.98513 4.70027C9.43338 4.58715 9.86124 4.41749 10.2144 4.11513C10.6966 3.70402 10.7804 3.12759 10.4249 2.60989C10.3276 2.4685 10.2167 2.32711 10.0899 2.20965C8.95797 1.16989 7.62682 0.47165 6.11004 0.101864C6.00004 0.0750888 5.8872 0.0565303 5.77396 0.0379081ZM8.5199 3.06994C8.53085 3.08305 8.54427 3.09912 8.56179 3.11889L8.55953 3.12106C8.46321 3.13998 8.36994 3.15952 8.27865 3.17865L8.27862 3.17866C8.07597 3.22113 7.88303 3.26156 7.68795 3.28855C6.84579 3.40384 6.00138 3.44299 5.16375 3.23417C5.11395 3.22112 5.06414 3.20589 5.01434 3.19067C4.32839 2.96444 4.20614 2.7143 4.47102 1.9856C4.54119 1.792 4.70646 1.70282 4.91699 1.67889C5.60973 1.60494 6.25493 1.78765 6.85259 2.08131C7.25106 2.27662 7.63114 2.50949 8.01085 2.74213C8.16398 2.83595 8.31705 2.92973 8.47124 3.021C8.48626 3.02966 8.49829 3.04407 8.5199 3.06994ZM10.0994 17.16V21.5844C10.0994 21.9476 10.0406 22.0042 9.65799 22.0042H2.43631C1.6349 22.0042 1.2093 21.5931 1.2093 20.8231V13.3904C1.2093 12.6356 1.64169 12.2157 2.42272 12.2157H9.5765C9.98173 12.2157 10.0972 12.3267 10.0972 12.7117V17.1578L10.0994 17.16ZM11.9012 17.1578V17.16V21.5822C11.9012 21.9368 11.9646 21.9998 12.3245 21.9998H19.5892C20.3567 21.9998 20.7913 21.58 20.7913 20.8383V13.386C20.7913 12.6334 20.3567 12.2157 19.5734 12.2157H12.4423C12.0053 12.2157 11.9012 12.318 11.9012 12.7356V17.1578ZM5.36759 5.7958H9.58968C9.99943 5.7958 10.099 5.89368 10.099 6.29175V10.6291C10.099 10.975 10.013 11.0598 9.65306 11.0598H1.18399C0.425604 11.0598 0 10.64 0 9.90695V6.94431C0 6.21344 0.430132 5.79797 1.18852 5.7958C2.11653 5.79435 3.04454 5.79483 3.97323 5.79531C4.43782 5.79556 4.90258 5.7958 5.36759 5.7958ZM20.7756 5.79701H16.6418L16.6396 5.79483H12.3269C12.0213 5.79483 11.9013 5.89489 11.9013 6.16462C11.8991 7.68292 11.8991 9.19904 11.9013 10.7173C11.9036 10.9305 12.0032 11.0284 12.2251 11.0523C12.2998 11.061 12.3745 11.061 12.4492 11.061H20.7847C21.5748 11.061 22.0004 10.6521 22.0004 9.89511V6.97597C22.0004 6.2016 21.5793 5.79701 20.7756 5.79701Z" fill="white"/>
</svg>
